<svg width="24" height="24" viewBox="0 0 512 512" fill="none" xmlns="http://www.w3.org/2000/svg">
<g filter="url(#filter0_d)">
<g clip-path="url(#clip0)">
<rect x="12" y="9" width="488" height="488" rx="15" fill="url(#paint0_linear)"/>
<circle opacity="0.1" cx="479.5" cy="426.5" r="94.5" fill="white"/>
<path opacity="0.1" d="M65 174L80.9405 223.06H132.525L90.7923 253.38L106.733 302.44L65 272.12L23.2672 302.44L39.2077 253.38L-2.52501 223.06H49.0595L65 174Z" fill="white"/>
<rect opacity="0.1" x="32" y="55.0594" width="256" height="256" transform="rotate(-38.413 32 55.0594)" fill="white"/>
<g opacity="0.8" clip-path="url(#clip1)">
<path d="M426.379 232.564V241.939C426.379 249.705 420.011 256.001 412.155 256.001H407.414L391.937 363.104C389.935 376.959 377.932 387.251 363.775 387.251H147.604C133.447 387.251 121.444 376.959 119.441 363.104L103.966 256.001H99.2241C91.3683 256.001 85 249.705 85 241.939V232.564C85 224.797 91.3683 218.501 99.2241 218.501H139.135L202.421 132.473C208.582 124.099 220.442 122.247 228.914 128.338C237.385 134.429 239.258 146.155 233.097 154.53L186.037 218.501H325.342L278.282 154.529C272.121 146.155 273.995 134.428 282.466 128.337C290.936 122.246 302.798 124.098 308.959 132.473L372.244 218.501H412.155C420.011 218.501 426.379 224.797 426.379 232.564ZM269.914 335.689V270.064C269.914 262.297 263.546 256.001 255.69 256.001C247.834 256.001 241.466 262.297 241.466 270.064V335.689C241.466 343.455 247.834 349.751 255.69 349.751C263.546 349.751 269.914 343.455 269.914 335.689ZM336.293 335.689V270.064C336.293 262.297 329.925 256.001 322.069 256.001C314.213 256.001 307.845 262.297 307.845 270.064V335.689C307.845 343.455 314.213 349.751 322.069 349.751C329.925 349.751 336.293 343.455 336.293 335.689ZM203.534 335.689V270.064C203.534 262.297 197.166 256.001 189.31 256.001C181.454 256.001 175.086 262.297 175.086 270.064V335.689C175.086 343.455 181.454 349.751 189.31 349.751C197.166 349.751 203.534 343.455 203.534 335.689Z" fill="white"/>
<path opacity="0.1" d="M408.717 319.08L413.103 451.662L296.091 389.169L408.717 319.08Z" fill="white"/>
</g>
</g>
</g>
<defs>
<filter id="filter0_d" x="0" y="0" width="512" height="512" filterUnits="userSpaceOnUse" color-interpolation-filters="sRGB">
<feFlood flood-opacity="0" result="BackgroundImageFix"/>
<feColorMatrix in="SourceAlpha" type="matrix" values="0 0 0 0 0 0 0 0 0 0 0 0 0 0 0 0 0 0 127 0"/>
<feOffset dy="3"/>
<feGaussianBlur stdDeviation="6"/>
<feColorMatrix type="matrix" values="0 0 0 0 0.553629 0 0 0 0 0.908333 0 0 0 0 0.102188 0 0 0 1 0"/>
<feBlend mode="normal" in2="BackgroundImageFix" result="effect1_dropShadow"/>
<feBlend mode="normal" in="SourceGraphic" in2="effect1_dropShadow" result="shape"/>
</filter>
<linearGradient id="paint0_linear" x1="24.7582" y1="239.418" x2="500" y2="239.418" gradientUnits="userSpaceOnUse">
<stop stop-color="#679C04"/>
<stop offset="1" stop-color="#8DE81A"/>
</linearGradient>
<clipPath id="clip0">
<rect x="12" y="9" width="488" height="488" rx="15" fill="white"/>
</clipPath>
<clipPath id="clip1">
<rect width="341.379" height="300" fill="white" transform="translate(85 106)"/>
</clipPath>
</defs>
</svg>
